<svg xmlns="http://www.w3.org/2000/svg" width="199.069" height="81.156" viewBox="0 0 1.31639 0.536661" shape-rendering="geometricPrecision" text-rendering="geometricPrecision" image-rendering="optimizeQuality" fill-rule="evenodd" clip-rule="evenodd"><defs><style>.fil0{fill:#fff}</style></defs><path class="fil0" d="M.4.315A.033.033 0 0 0 .395.31C.388.304.377.3.363.3A.058.058 0 0 0 .31.328H.223l.05-.192h.048L.277 0 .212.202H0l.171.124-.065.202.109-.08L.3.386l.03-.022.044-.032.008-.006L.4.315zM.367.202H.337l-.02.071A.13.13 0 0 1 .44.247a.087.087 0 0 1 .03.015l.085-.06H.368zm.919.202v.004H1.28v.02h-.005v-.02h-.007V.404h.019zM.538.39L.543.354h.05L.588.39h-.05zM.95.44h.017L.96.49a.16.16 0 0 0-.002.014c0 .01.004.017.01.022a.043.043 0 0 0 .028.008.194.194 0 0 0 .027-.002L1.025.52a.033.033 0 0 0 .006.006c.008.007.018.01.03.01a.066.066 0 0 0 .023-.004.083.083 0 0 0 .022-.012l.002.012H1.2l.007-.049c.002-.013.005-.022.01-.027.004-.005.01-.007.02-.007a.086.086 0 0 1 .011 0l.007-.048h-.006a.037.037 0 0 0-.02.005.055.055 0 0 0-.017.017l.003-.019H1.17l-.017.118V.516.512.505L1.161.46A.156.156 0 0 0 1.163.44a.034.034 0 0 0-.016-.03.081.081 0 0 0-.045-.01.093.093 0 0 0-.049.01.042.042 0 0 0-.013.012l.003-.018H1.02l.006-.04H.978l-.006.04H.954L.952.42a.037.037 0 0 0-.01-.01A.079.079 0 0 0 .897.4a.084.084 0 0 0-.046.01.033.033 0 0 0-.016.028.054.054 0 0 0-.013-.021C.811.405.794.4.772.4a.073.073 0 0 0-.06.026l.01-.022H.674l-.034.08-.01-.08H.51C.514.385.533.39.533.39L.534.385.54.355H.503a.04.04 0 0 0-.03.014.041.041 0 0 0-.007.015l-.004.02H.445L.44.432h.018l-.014.1h.048l.014-.1h.027l-.015.1h.05L.584.417l.021.115h.056l.038-.08a.097.097 0 0 0-.002.024c0 .019.006.033.018.044.013.011.03.017.051.017A.086.086 0 0 0 .811.526.054.054 0 0 0 .83.506a.04.04 0 0 0 .014.018.082.082 0 0 0 .048.012c.02 0 .036-.004.047-.012A.04.04 0 0 0 .954.49.03.03 0 0 0 .95.474.035.035 0 0 0 .937.462a.124.124 0 0 0-.025-.01.322.322 0 0 1-.025-.009C.885.441.883.439.883.436S.885.43.887.429a.017.017 0 0 1 .01-.003c.005 0 .009.002.012.004a.011.011 0 0 1 .004.01H.95zm.362-.013L1.31.414V.407l-.002.007-.005.013H1.3L1.296.414 1.294.407v.007l-.001.013h-.005L1.29.404h.007L1.3.415l.001.006.002-.006.004-.01h.007l.001.022h-.004zM.793.454A.026.026 0 0 0 .787.436.019.019 0 0 0 .772.43a.022.022 0 0 0-.015.006.03.03 0 0 0-.008.018h.044zM.781.502A.023.023 0 0 0 .793.49h.08c0 .006.002.01.005.013C.88.506.885.507.89.507A.018.018 0 0 0 .901.504a.01.01 0 0 0 0-.015A.037.037 0 0 0 .89.483H.888C.863.473.846.463.84.452a.103.103 0 0 1 0 .027H.747v.002C.747.49.749.495.752.5c.004.004.01.006.017.006A.027.027 0 0 0 .78.502zm.253-.034a.1.1 0 0 1 .049-.015h.007c.016-.002.024-.006.024-.012A.01.01 0 0 0 1.11.433.021.021 0 0 0 1.098.43a.021.021 0 0 0-.012.003c-.003.002-.005.005-.005.01H1.014L1.01.481v.004c0 .003 0 .005.003.007a.016.016 0 0 0 .008.002.037.037 0 0 1 .014-.027zM1.09.48c-.014.003-.02.008-.02.015a.01.01 0 0 0 .003.008.014.014 0 0 0 .01.003.024.024 0 0 0 .019-.008.036.036 0 0 0 .008-.023.234.234 0 0 1-.02.005z" id="Layer_x0020_1"/></svg>